<svg xmlns="http://www.w3.org/2000/svg" data-name="logoipsum" width="100" height="48" style=""><rect id="backgroundrect" width="100%" height="100%" x="0" y="0" fill="none" stroke="none"/><title>logoipsum-4</title><g class="currentLayer" style=""><title>Layer 1</title><path d="M3.814697180359872e-8,28.61000160217285 h3 V43.32000160217285 h-3 z" style="fill:#394149" id="svg_1" class=""/><path d="M4.740000038146974,38.280001602172845 a5.34,5.34 0 1 1 5.34,5.33 A5.28,5.28 0 0 1 4.740000038146974,38.280001602172845 zm7.66,0 a2.3200000000000003,2.3200000000000003 0 1 0 -2.3200000000000003,2.38 A2.26,2.26 0 0 0 12.40000003814697,38.280001602172845 z" style="fill:#394149" id="svg_2" class=""/><path d="M27.48000003814697,33.24000160217285 V42.82000160217285 c0,3.39 -2.6500000000000004,4.82 -5.33,4.82 a5.15,5.15 0 0 1 -4.77,-2.44 l2.58,-1.49 A2.3,2.3 0 0 0 22.210000038146973,44.98000160217285 A2,2 0 0 0 24.530000038146973,42.82000160217285 v-0.93 a3.56,3.56 0 0 1 -2.94,1.31 a5.12,5.12 0 0 1 0,-10.24 a3.59,3.59 0 0 1 2.94,1.31 v-1 zm-2.95,4.84 a2.44,2.44 0 1 0 -2.44,2.34 A2.2800000000000002,2.2800000000000002 0 0 0 24.530000038146973,38.08000160217286 z" style="fill:#394149" id="svg_3" class=""/><path d="M29.210000038146973,38.280001602172845 a5.34,5.34 0 1 1 5.34,5.33 A5.28,5.28 0 0 1 29.210000038146973,38.280001602172845 zm7.66,0 a2.3200000000000003,2.3200000000000003 0 1 0 -2.3200000000000003,2.38 A2.26,2.26 0 0 0 36.85000003814697,38.280001602172845 z" style="fill:#394149" id="svg_4" class=""/><path d="M41.280000038146966,30.54000160217285 a1.82,1.82 0 1 1 1.82,1.82 A1.83,1.83 0 0 1 41.280000038146966,30.54000160217285 zm0.3100000000000001,2.7 h3 V43.32000160217285 h-3 z" style="fill:#394149" id="svg_5" class=""/><path d="M57.670000038146966,38.280001602172845 a5.06,5.06 0 0 1 -4.8100000000000005,5.33 a3.83,3.83 0 0 1 -3,-1.23 v5 h-3 V33.24000160217285 h3 v0.9500000000000002 a3.83,3.83 0 0 1 3,-1.23 A5.06,5.06 0 0 1 57.670000038146966,38.280001602172845 zm-3,0 A2.4,2.4 0 1 0 52.21000003814697,40.74000160217285 A2.3,2.3 0 0 0 54.65000003814697,38.280001602172845 z" style="fill:#394149" id="svg_6" class=""/><path d="M67.01000003814697,40.300001602172856 c0,2.3200000000000003 -2,3.31 -4.2,3.31 a4.42,4.42 0 0 1 -4.33,-2.4 l2.62,-1.49 a1.6600000000000001,1.6600000000000001 0 0 0 1.71,1.19 c0.7300000000000002,0 1.09,-0.23 1.09,-0.6300000000000002 c0,-1.11 -5,-0.52 -5,-4 c0,-2.2 1.86,-3.31 4,-3.31 a4.43,4.43 0 0 1 3.94,2.16 L64.21000003814697,36.51000160217285 a1.49,1.49 0 0 0 -1.36,-0.8900000000000002 c-0.52,0 -0.8400000000000002,0.2 -0.8400000000000002,0.5700000000000002 C62.050000038146976,37.340001602172855 67.01000003814697,36.57000160217285 67.01000003814697,40.300001602172856 z" style="fill:#394149" id="svg_7" class=""/><path d="M78.05000003814698,33.24000160217285 V43.32000160217285 h-3 v-0.9400000000000002 a3.45,3.45 0 0 1 -2.88,1.23 c-2,0 -3.77,-1.45 -3.77,-4.18 V33.24000160217285 h3 v5.75 A1.6600000000000001,1.6600000000000001 0 0 0 73.21000003814697,40.82000160217285 c1.1,0 1.87,-0.6400000000000002 1.87,-2.07 V33.24000160217285 z" style="fill:#394149" id="svg_8" class=""/><path d="M95.39000003814698,37.14000160217285 V43.32000160217285 h-3 V37.40000160217285 c0,-1 -0.4900000000000001,-1.6600000000000001 -1.45,-1.6600000000000001 s-1.58,0.7100000000000002 -1.58,1.9 V43.32000160217285 h-3 V37.40000160217285 c0,-1 -0.4800000000000001,-1.6600000000000001 -1.45,-1.6600000000000001 s-1.57,0.7100000000000002 -1.57,1.9 V43.32000160217285 h-3 V33.24000160217285 h3 v0.93 a3.1,3.1 0 0 1 2.7,-1.21 a3,3 0 0 1 2.64,1.33 a3.3200000000000003,3.3200000000000003 0 0 1 2.92,-1.33 C93.88000003814696,32.96000160217285 95.39000003814698,34.62000160217285 95.39000003814698,37.14000160217285 z" style="fill:#394149" id="svg_9" class=""/><circle cx="97.95000553131104" cy="30.940000534057617" r="2.240000009536743" style="fill:#394149" id="svg_10" class=""/><circle cx="33.949997901916504" cy="10.489999771118164" r="10.489999771118164" style="fill:#394149" id="svg_11" class=""/><circle cx="57.40000247955322" cy="10.489999771118164" r="10.489999771118164" style="fill:#394149" id="svg_12" class=""/><rect x="0.02000141143798828" y="0.0000019073486328125" width="20.969999313354492" height="20.969999313354492" style="fill:#394149" id="svg_13" class=""/></g></svg>