<svg xmlns="http://www.w3.org/2000/svg" data-name="Layer 1" width="119" height="27"><rect id="backgroundrect" width="100%" height="100%" x="0" y="0" fill="none" stroke="none"/><title>logo-5</title><g class="currentLayer" style=""><title>Layer 1</title><path d="M34.39888298034668,7.641159362792969 h3 V19.77115936279297 h-3 zm4.19,7.55 c0,-3 1.84,-4.79 4.68,-4.79 s4.68,1.79 4.68,4.79 s-1.8,4.8 -4.68,4.8 S38.58888298034668,18.24115936279297 38.58888298034668,15.191159362792966 zm6.35,0 c0,-1.6500000000000001 -0.6500000000000001,-2.62 -1.6700000000000002,-2.62 s-1.6600000000000001,1 -1.6600000000000001,2.62 s0.6300000000000001,2.6 1.6600000000000001,2.6 S44.938882980346676,16.871159362792966 44.938882980346676,15.201159362792971 zm4.14,5.17 h2.88 a1.55,1.55 0 0 0 1.62,0.9 c1.1400000000000001,0 1.7400000000000002,-0.6200000000000001 1.7400000000000002,-1.52 V18.06115936279297 h-0.06000000000000001 A2.84,2.84 0 0 1 52.52888298034668,19.70115936279297 c-2.19,0 -3.64,-1.6700000000000002 -3.64,-4.54 s1.3800000000000001,-4.68 3.68,-4.68 a2.87,2.87 0 0 1 2.7600000000000002,1.7600000000000002 h0 V10.571159362792969 h3 V19.67115936279297 c0,2.19 -1.9300000000000002,3.55 -4.78,3.55 C50.898882980346684,23.221159362792967 49.24888298034668,22.03115936279297 49.07888298034668,20.371159362792966 zm6.25,-5.18 c0,-1.46 -0.6700000000000002,-2.38 -1.73,-2.38 s-1.71,0.91 -1.71,2.38 s0.6400000000000001,2.3 1.71,2.3 S55.32888298034668,16.67115936279297 55.32888298034668,15.191159362792966 zm4.13,0 c0,-3 1.84,-4.79 4.68,-4.79 s4.69,1.79 4.69,4.79 s-1.8,4.8 -4.69,4.8 S59.45888298034669,18.24115936279297 59.45888298034669,15.191159362792966 zm6.35,0 c0,-1.6500000000000001 -0.6500000000000001,-2.62 -1.6700000000000002,-2.62 S62.52888298034668,13.571159362792969 62.52888298034668,15.201159362792971 s0.6300000000000001,2.6 1.6500000000000001,2.6 S65.80888298034668,16.871159362792966 65.80888298034668,15.201159362792971 zm4.16,-6.79 A1.53,1.53 0 1 1 71.52888298034668,9.881159362792971 A1.46,1.46 0 0 1 69.96888298034668,8.411159362792972 zm0,2.2 h3 V19.77115936279297 h-3 zm13.89,4.59 c0,3 -1.33,4.71 -3.6100000000000003,4.71 a2.8600000000000003,2.8600000000000003 0 0 1 -2.8,-1.7000000000000002 h-0.06000000000000001 v4.52 h-3 V10.571159362792969 h3 v1.6400000000000001 h0.06000000000000001 a2.87,2.87 0 0 1 2.7800000000000002,-1.77 C82.52888298034668,10.481159362792965 83.89888298034668,12.201159362792971 83.89888298034668,15.201159362792971 zm-3,0 c0,-1.46 -0.6700000000000002,-2.39 -1.7200000000000002,-2.39 s-1.7200000000000002,0.9400000000000001 -1.73,2.39 s0.6800000000000002,2.38 1.73,2.38 S80.85888298034668,16.651159362792967 80.85888298034668,15.201159362792971 zm8.15,-4.8 c2.49,0 4,1.18 4.07,3.07 h-2.73 c0,-0.6500000000000001 -0.54,-1.06 -1.37,-1.06 s-1.2,0.32000000000000006 -1.2,0.79 s0.33000000000000007,0.6200000000000001 1,0.7600000000000001 l1.92,0.39000000000000007 c1.83,0.39000000000000007 2.6100000000000003,1.13 2.6100000000000003,2.52 c0,1.9 -1.73,3.12 -4.28,3.12 s-4.22,-1.22 -4.35,-3.09 h2.89 c0.09000000000000002,0.6800000000000002 0.6300000000000001,1.08 1.51,1.08 s1.28,-0.29000000000000004 1.28,-0.77 s-0.28,-0.5800000000000001 -1,-0.7300000000000001 l-1.73,-0.37000000000000005 c-1.79,-0.37000000000000005 -2.73,-1.32 -2.73,-2.72 C84.91888298034668,11.571159362792969 86.52888298034668,10.401159362792967 89.00888298034668,10.401159362792967 zm14.31,9.37 H100.42888298034669 V18.041159362792968 h-0.06000000000000001 a2.6100000000000003,2.6100000000000003 0 0 1 -2.66,1.9100000000000001 a3.19,3.19 0 0 1 -3.36,-3.45 V10.571159362792969 h3 v5.24 c0,1.09 0.56,1.6700000000000002 1.49,1.6700000000000002 a1.53,1.53 0 0 0 1.52,-1.73 V10.571159362792969 h3 zM104.76888298034669,10.571159362792969 h2.9 v1.77 h0.06000000000000001 a2.66,2.66 0 0 1 2.6100000000000003,-1.94 a2.39,2.39 0 0 1 2.55,2 h0.06000000000000001 a2.8200000000000003,2.8200000000000003 0 0 1 2.8200000000000003,-2 a2.91,2.91 0 0 1 3,3.12 V19.77115936279297 h-3 V14.321159362792969 c0,-1 -0.45,-1.46 -1.29,-1.46 a1.31,1.31 0 0 0 -1.31,1.48 V19.77115936279297 h-2.85 V14.28115936279297 c0,-0.92 -0.45,-1.42 -1.27,-1.42 a1.34,1.34 0 0 0 -1.33,1.5 V19.77115936279297 h-3 z" style="fill:#394149" id="svg_1" class=""/><path d="M26.008882980346677,8.191159362792966 a13.25,13.25 0 0 0 -2,-3.22 A13.53,13.53 0 1 0 5.328882980346677,24.291159362792968 A13.09,13.09 0 0 0 8.52888298034668,26.121159362792966 a13.39,13.39 0 0 0 5.07,1 A13.56,13.56 0 0 0 27.12888298034668,13.571159362792969 A13.39,13.39 0 0 0 26.008882980346677,8.191159362792966 zM13.588882980346682,2.7611593627929665 a10.71,10.71 0 0 1 4.52,1 h0 a4.39,4.39 0 0 1 -1.08,0.31000000000000005 a5.73,5.73 0 0 0 -4.85,4.85 A3,3 0 0 1 9.468882980346677,11.571159362792969 a5.73,5.73 0 0 0 -4.85,4.85 a2.91,2.91 0 0 1 -0.79,1.7400000000000002 h0 a10.8,10.8 0 0 1 9.77,-15.42 zM5.318882980346679,20.57115936279297 c0.12000000000000001,-0.11000000000000001 0.24000000000000002,-0.21000000000000002 0.36000000000000004,-0.33000000000000007 a5.48,5.48 0 0 0 1.62,-3.23 a2.92,2.92 0 0 1 0.8700000000000001,-1.82 a2.83,2.83 0 0 1 1.81,-0.8600000000000001 a5.73,5.73 0 0 0 4.85,-4.85 A2.92,2.92 0 0 1 15.698882980346681,7.571159362792969 A2.87,2.87 0 0 1 17.52888298034668,6.7411593627929705 a5.48,5.48 0 0 0 3,-1.4300000000000002 a10.51,10.51 0 0 1 2.36,2.7800000000000002 a0.8600000000000001,0.8600000000000001 0 0 1 -0.13,0.14 a2.87,2.87 0 0 1 -1.81,0.8800000000000001 a5.71,5.71 0 0 0 -4.85,4.85 a3,3 0 0 1 -2.6900000000000004,2.68 A5.76,5.76 0 0 0 8.52888298034668,21.49115936279297 a3.14,3.14 0 0 1 -0.49000000000000005,1.37 A10.89,10.89 0 0 1 5.318882980346679,20.57115936279297 zm8.27,3.8600000000000003 a10.84,10.84 0 0 1 -3,-0.42000000000000004 a5.78,5.78 0 0 0 0.6400000000000001,-2 a3,3 0 0 1 2.68,-2.68 a5.73,5.73 0 0 0 4.86,-4.85 a3,3 0 0 1 2.68,-2.68 a5.71,5.71 0 0 0 2.56,-1 A10.82,10.82 0 0 1 13.588882980346682,24.38115936279297 z" style="fill:#394149" id="svg_2" class=""/></g></svg>